# xmcd
#
# Track frame offsets:
#	150
#	19087
#	33599
#	55724
#	75599
#	95549
#	112349
#	128961
#	149961
#	165786
#	185173
#	198373
#
# Disc length: 2899 seconds
#
# Revision: 0
# Processed by: cddbd v1.5.2PL0 Copyright (c) Steve Scherf et al.
# Submitted via: dBpowerAMP V4.0
#
DISCID=aa0b510c
DTITLE=Jeffrey Michaels - Jeffrey Michaels
DYEAR=2009
DGENRE=Country
TTITLE0=Bench Seat
TTITLE1=No Fast Lanes
TTITLE2=Highway 65
TTITLE3=My Amelia
TTITLE4=The Happy Song
TTITLE5=Streets Of Bakersfield
TTITLE6=Take Everything
TTITLE7=Names On A Headstone
TTITLE8=Mountains I Climb
TTITLE9=Alongside Of The Road
TTITLE10=Bought A Truck From Jesus
TTITLE11=Worn Out Boot
EXTD=
EXTT0=
EXTT1=
EXTT2=
EXTT3=
EXTT4=
EXTT5=
EXTT6=
EXTT7=
EXTT8=
EXTT9=
EXTT10=
EXTT11=
PLAYORDER=
